{
  "title": "This Is Where I Leave You 2014 HC HDRIP x264 AC3 TiTAN",
  "uid": 11155887,
  "size": 992064816,
  "categoryP": "video",
  "categoryS": "movies",
  "magnet": "?xt=urn:btih:4db4f4f89560e7b6f80cfc116f7bf7ad5e400c83&amp;dn=This+Is+Where+I+Leave+You+2014+HC+HDRIP+x264+AC3+TiTAN&amp;tr=udp%3A%2F%2Ftracker.openbittorrent.com%3A80&amp;tr=udp%3A%2F%2Fopen.demonii.com%3A1337&amp;tr=udp%3A%2F%2Ftracker.coppersurfer.tk%3A6969&amp;tr=udp%3A%2F%2Fexodus.desync.com%3A6969",
  "seeders": 95,
  "leechers": 6,
  "uploader": "xxxlavalxxx",
  "files": -1,
  "time": 1412421570,
  "description": "[IMG]http://i.imgur.com/KKztunv.jpg[/IMG]\n\n &lt;a href=&quot;\nhttp://www.imdb.com/title/tt1371150/&quot; rel=&quot;nofollow&quot; target=&quot;_NEW&quot;&gt;\nhttp://www.imdb.com/title/tt1371150/&lt;/a&gt;\n\n\nWhen their father passes away, four grown siblings are forced to return to their childhood home and live under the same roof together for a week, along with their over-sharing mother and an assortment of spouses, exes and might-have-beens.\n\nDirector: Shawn Levy\nWriters: Jonathan Tropper (screenplay), Jonathan Tropper (novel)\nStars: Jason Bateman, Tina Fey, Jane Fonda\nGenres: Comedy,Drama\nCountry: USA\nLanguage: English\n\n\nSource: MPBA THX\n\nGeneral\n\nFormat                                   : Matroska\nFormat version                           : Version 2\nFile size                                : 946 MiB\nDuration                                 : 1h 42mn\nOverall bit rate mode                    : Variable\nOverall bit rate                         : 1 286 Kbps\nEncoded date                             : UTC 2014-10-04 06:59:28\n\nVideo\nID                                       : 1\nFormat                                   : AVC\nFormat/Info                              : Advanced Video Codec\nFormat profile                           : &lt;a class=&quot;__cf_email__&quot; href=&quot;/cdn-cgi/l/email-protection&quot; data-cfemail=&quot;baf2d3ddd2faf68e948b&quot;&gt;[email&amp;#160;protected]&lt;/a&gt;&lt;script cf-hash='f9e31' type=&quot;text/javascript&quot;&gt;\n/* &lt;![CDATA[ */!function(){try{var t=&quot;currentScript&quot;in document?document.currentScript:function(){for(var t=document.getElementsByTagName(&quot;script&quot;),e=t.length;e--;)if(t[e].getAttribute(&quot;cf-hash&quot;))return t[e]}();if(t&amp;&amp;t.previousSibling){var e,r,n,i,c=t.previousSibling,a=c.getAttribute(&quot;data-cfemail&quot;);if(a){for(e=&quot;&quot;,r=parseInt(a.substr(0,2),16),n=2;a.length-n;n+=2)i=parseInt(a.substr(n,2),16)^r,e+=String.fromCharCode(i);e=document.createTextNode(e),c.parentNode.replaceChild(e,c)}}}catch(u){}}();/* ]]&gt; */&lt;/script&gt;\nFormat settings, CABAC                   : Yes\nFormat settings, ReFrames                : 3 frames\nCodec ID                                 : V_MPEG4/ISO/AVC\nDuration                                 : 1h 42mn\nBit rate mode                            : Variable\nBit rate                                 : 1 069 Kbps\nMaximum bit rate                         : 40.0 Mbps\nWidth                                    : 720 pixels\nHeight                                   : 288 pixels\nDisplay aspect ratio                     : 2.500\nFrame rate mode                          : Constant\nFrame rate                               : 30.000 fps\nColor space                              : YUV\nChroma subsampling                       : 4:2:0\nBit depth                                : 8 bits\nScan type                                : Progressive\nBits/(Pixel*Frame)                       : 0.172\nStream size                              : 786 MiB (83%)\nDefault                                  : Yes\nForced                                   : No\nColor primaries                          : BT.709\nTransfer characteristics                 : BT.709\nMatrix coefficients                      : BT.709\n\nAudio\nID                                       : 2\nFormat                                   : AC-3\nFormat/Info                              : Audio Coding 3\nMode extension                           : CM (complete main)\nFormat settings, Endianness              : Big\nCodec ID                                 : A_AC3\nDuration                                 : 1h 42mn\nBit rate mode                            : Constant\nBit rate                                 : 192 Kbps\nChannel(s)                               : 2 channels\nChannel positions                        : Front: L R\nSampling rate                            : 48.0 KHz\nBit depth                                : 16 bits\nCompression mode                         : Lossy\nStream size                              : 141 MiB (15%)\nLanguage                                 : English\nDefault                                  : Yes\nForced                                   : No\n\n\nscreens\n &lt;a href=&quot;\nhttp://i.imgur.com/X1shpQ3.jpg&quot; rel=&quot;nofollow&quot; target=&quot;_NEW&quot;&gt;\nhttp://i.imgur.com/X1shpQ3.jpg&lt;/a&gt; &lt;a href=&quot;\nhttp://i.imgur.com/xGzmVUn.jpg&quot; rel=&quot;nofollow&quot; target=&quot;_NEW&quot;&gt;\nhttp://i.imgur.com/xGzmVUn.jpg&lt;/a&gt; &lt;a href=&quot;\nhttp://i.imgur.com/MAvQE2I.jpg&quot; rel=&quot;nofollow&quot; target=&quot;_NEW&quot;&gt;\nhttp://i.imgur.com/MAvQE2I.jpg&lt;/a&gt; &lt;a href=&quot;\nhttp://i.imgur.com/q5rwWsk.jpg&quot; rel=&quot;nofollow&quot; target=&quot;_NEW&quot;&gt;\nhttp://i.imgur.com/q5rwWsk.jpg&lt;/a&gt; &lt;a href=&quot;\nhttp://i.imgur.com/U9Y603q.jpg&quot; rel=&quot;nofollow&quot; target=&quot;_NEW&quot;&gt;\nhttp://i.imgur.com/U9Y603q.jpg&lt;/a&gt; &lt;a href=&quot;\nhttp://i.imgur.com/XPmbfpJ.jpg&quot; rel=&quot;nofollow&quot; target=&quot;_NEW&quot;&gt;\nhttp://i.imgur.com/XPmbfpJ.jpg&lt;/a&gt; &lt;a href=&quot;\nhttp://i.imgur.com/VADYDwf.jpg&quot; rel=&quot;nofollow&quot; target=&quot;_NEW&quot;&gt;\nhttp://i.imgur.com/VADYDwf.jpg&lt;/a&gt;",
  "parsed": {
    "xt": "urn:btih:4db4f4f89560e7b6f80cfc116f7bf7ad5e400c83",
    "dn": "This Is Where I Leave You 2014 HC HDRIP x264 AC3 TiTAN",
    "tr": [
      "udp://exodus.desync.com:6969",
      "udp://open.demonii.com:1337",
      "udp://tracker.coppersurfer.tk:6969",
      "udp://tracker.openbittorrent.com:80"
    ],
    "infoHash": "4db4f4f89560e7b6f80cfc116f7bf7ad5e400c83",
    "infoHashBuffer": {
      "type": "Buffer",
      "data": [
        77,
        180,
        244,
        248,
        149,
        96,
        231,
        182,
        248,
        12,
        252,
        17,
        111,
        123,
        247,
        173,
        94,
        64,
        12,
        131
      ]
    },
    "name": "This Is Where I Leave You 2014 HC HDRIP x264 AC3 TiTAN",
    "announce": [
      "udp://exodus.desync.com:6969",
      "udp://open.demonii.com:1337",
      "udp://tracker.coppersurfer.tk:6969",
      "udp://tracker.openbittorrent.com:80"
    ],
    "urlList": []
  },
  "previous": 101,
  "peers": 33,
  "last_updated": "2016-12-25T00:36:51.964Z"
}